<svg xmlns="http://www.w3.org/2000/svg" viewBox="0 0 32 32">
  <defs>
    <linearGradient id="fx" x1="0" y1="0" x2="1" y2="1">
      <stop offset="0%" stop-color="#e8c766"/>
      <stop offset="55%" stop-color="#b8912e"/>
      <stop offset="100%" stop-color="#8a6d1a"/>
    </linearGradient>
  </defs>
  <g transform="translate(0.82,23) scale(0.02,-0.02)">
    <path d="M419 -14Q336 -14 265.5 12.5Q195 39 143.5 88.0Q92 137 63.0 203.5Q34 270 34 350Q34 430 63.0 496.5Q92 563 143.5 612.0Q195 661 265.5 687.5Q336 714 419 714Q516 714 592.5 680.0Q669 646 720 582L594 468Q560 508 519.5 529.0Q479 550 429 550Q386 550 350.0 536.0Q314 522 288.5 495.5Q263 469 248.5 432.0Q234 395 234 350Q234 305 248.5 268.0Q263 231 288.5 204.5Q314 178 350.0 164.0Q386 150 429 150Q479 150 519.5 171.0Q560 192 594 232L720 118Q669 55 592.5 20.5Q516 -14 419 -14Z" fill="url(#fx)"/>
  </g>
  <g transform="translate(15.41,23) scale(0.02,-0.02)">
    <path d="M-2 0 304 425 303 284 9 700H232L420 429L325 428L510 700H724L430 292V432L740 0H512L321 285H412L224 0Z" fill="url(#fx)"/>
  </g>
</svg>